<svg
xmlns="http://www.w3.org/2000/svg"
width="28"
height="28"
viewBox="0 0 28 28"
fill="none"
>
<path
fill-rule="evenodd"
clip-rule="evenodd"
d="M14.5145 28C24.6837 28 28 20.5333 28 14C28 7.46667 20.3499 0 14.5145 0C8.6791 0 0 3.15512 0 14C0 24.8449 4.3453 28 14.5145 28Z"
fill="white"
/>
<path
d="M9.004 20.6264L7.6 10.8H20.4L18.996 20.6264C18.9415 21.0077 18.7513 21.3565 18.4603 21.6088C18.1694 21.8611 17.7971 22 17.412 22H10.588C10.2029 22 9.8306 21.8611 9.5397 21.6088C9.2487 21.3565 9.0585 21.0077 9.004 20.6264ZM21.2 7.6H17.2V6.8C17.2 6.58783 17.1157 6.38434 16.9657 6.23431C16.8157 6.08429 16.6122 6 16.4 6H11.6C11.3878 6 11.1843 6.08429 11.0343 6.23431C10.8843 6.38434 10.8 6.58783 10.8 6.8V7.6H6.8C6.5878 7.6 6.3843 7.68429 6.2343 7.83431C6.0843 7.98434 6 8.18783 6 8.4C6 8.61217 6.0843 8.81566 6.2343 8.96569C6.3843 9.11571 6.5878 9.2 6.8 9.2H21.2C21.4122 9.2 21.6157 9.11571 21.7657 8.96569C21.9157 8.81566 22 8.61217 22 8.4C22 8.18783 21.9157 7.98434 21.7657 7.83431C21.6157 7.68429 21.4122 7.6 21.2 7.6Z"
fill="#852E2C"
/>
</svg>
