<svg
xmlns="http://www.w3.org/2000/svg"
width="28"
height="28"
viewBox="0 0 28 28"
fill="none"
>
<path
fill-rule="evenodd"
clip-rule="evenodd"
d="M14.5145 28C24.6837 28 28 20.5333 28 14C28 7.46667 20.3499 0 14.5145 0C8.6791 0 0 3.15512 0 14C0 24.8449 4.3453 28 14.5145 28Z"
fill="#852E2C"
/>
<path
d="M6 19.133V21.4867C6 21.7701 6.2298 22 6.5133 22H8.8721C9.0082 22 9.1388 21.9459 9.2351 21.8497L18.9338 12.1509L15.8534 9.07056L6.1504 18.7699C6.0541 18.8662 6 18.9968 6 19.133Z"
fill="white"
/>
<path
d="M17.125 7.79942L20.2052 10.8795L21.7042 9.38051C22.1051 8.97961 22.1051 8.32962 21.7042 7.92873L20.0762 6.30067C19.6753 5.89983 19.0254 5.89977 18.6245 6.30054L17.125 7.79942Z"
fill="white"
/>
</svg>
