<svg
xmlns="http://www.w3.org/2000/svg"
width="28"
height="28"
viewBox="0 0 28 28"
fill="none"
>
<path
fill-rule="evenodd"
clip-rule="evenodd"
d="M14.5145 28C24.6837 28 28 20.5333 28 14C28 7.46667 20.3499 0 14.5145 0C8.67907 0 0 3.15512 0 14C0 24.8449 4.34535 28 14.5145 28Z"
fill="#852E2C"
/>
<path
fill-rule="evenodd"
clip-rule="evenodd"
d="M15.044 6.12179C14.7471 6 14.3706 6 13.6176 6C12.8647 6 12.4882 6 12.1913 6.12179C11.7953 6.28418 11.4808 6.59566 11.3168 6.9877C11.2419 7.16667 11.2126 7.3748 11.2011 7.67839C11.1843 8.12454 10.9532 8.53751 10.5627 8.76074C10.1722 8.98397 9.69547 8.97563 9.29682 8.76701C9.02555 8.62504 8.82886 8.5461 8.63489 8.52082C8.20999 8.46542 7.78026 8.57943 7.44026 8.83776C7.18526 9.0315 6.99702 9.35432 6.62056 9.99994C6.24409 10.6456 6.05586 10.9684 6.01391 11.2839C5.95796 11.7046 6.07311 12.1301 6.33401 12.4668C6.4531 12.6205 6.62045 12.7496 6.8802 12.9112C7.26205 13.1488 7.50775 13.5535 7.50772 14C7.5077 14.4465 7.26201 14.8511 6.8802 15.0886C6.62041 15.2503 6.45302 15.3795 6.33393 15.5332C6.07303 15.8698 5.95789 16.2953 6.01383 16.716C6.05578 17.0315 6.24402 17.3544 6.62047 18C6.99694 18.6456 7.18517 18.9685 7.44018 19.1622C7.78018 19.4205 8.20991 19.5345 8.63481 19.4791C8.82877 19.4538 9.02544 19.3749 9.2967 19.233C9.69537 19.0243 10.1721 19.016 10.5627 19.2392C10.9532 19.4625 11.1843 19.8754 11.2011 20.3217C11.2126 20.6252 11.2419 20.8334 11.3168 21.0123C11.4808 21.4043 11.7953 21.7158 12.1913 21.8782C12.4882 22 12.8647 22 13.6176 22C14.3706 22 14.7471 22 15.044 21.8782C15.4399 21.7158 15.7545 21.4043 15.9185 21.0123C15.9934 20.8334 16.0227 20.6252 16.0342 20.3216C16.051 19.8754 16.282 19.4625 16.6726 19.2392C17.0631 19.0159 17.5398 19.0243 17.9385 19.233C18.2098 19.3749 18.4064 19.4538 18.6004 19.479C19.0253 19.5345 19.455 19.4205 19.795 19.1622C20.0501 18.9684 20.2382 18.6456 20.6147 17.9999C20.9912 17.3543 21.1794 17.0315 21.2214 16.716C21.2773 16.2953 21.1621 15.8698 20.9013 15.5331C20.7821 15.3794 20.6148 15.2502 20.355 15.0886C19.9732 14.8511 19.7275 14.4464 19.7275 13.9999C19.7275 13.5534 19.9732 13.1489 20.355 12.9114C20.6149 12.7497 20.7822 12.6206 20.9014 12.4668C21.1622 12.1302 21.2774 11.7047 21.2215 11.284C21.1795 10.9684 20.9913 10.6456 20.6148 10C20.2383 9.35438 20.0501 9.03156 19.7951 8.83782C19.4551 8.57949 19.0254 8.46548 18.6005 8.52087C18.4065 8.54615 18.2098 8.62509 17.9386 8.76704C17.5399 8.97567 17.0631 8.98402 16.6726 8.76077C16.2821 8.53753 16.051 8.12453 16.0341 7.67835C16.0226 7.37478 15.9934 7.16666 15.9185 6.9877C15.7545 6.59566 15.4399 6.28418 15.044 6.12179ZM13.6176 16.4C14.9563 16.4 16.0415 15.3255 16.0415 14C16.0415 12.6745 14.9563 11.6 13.6176 11.6C12.2789 11.6 11.1938 12.6745 11.1938 14C11.1938 15.3255 12.2789 16.4 13.6176 16.4Z"
fill="white"
/>
</svg>
