<svg width="80" height="80" viewBox="0 0 80 80" fill="none" xmlns="http://www.w3.org/2000/svg">
<path fill-rule="evenodd" clip-rule="evenodd" d="M3.07693 49C4.77625 49 6.15385 50.388 6.15385 52.1C6.15385 58.033 6.16037 62.1709 6.57703 65.2932C6.98174 68.3262 7.72205 69.932 8.85748 71.0761C9.9929 72.2202 11.5871 72.9659 14.5974 73.3739C17.6963 73.7934 21.8034 73.8 27.6923 73.8H52.3077C58.1965 73.8 62.3036 73.7934 65.4027 73.3739C68.4131 72.9659 70.007 72.2202 71.1426 71.0761C72.2781 69.932 73.0183 68.3262 73.4232 65.2932C73.8396 62.1709 73.8462 58.033 73.8462 52.1C73.8462 50.388 75.2238 49 76.9231 49C78.6224 49 80 50.388 80 52.1V52.3269C80 57.9797 80 62.5358 79.522 66.1194C79.0256 69.8399 77.9635 72.9721 75.4941 75.4599C73.0244 77.9482 69.9155 79.0183 66.2228 79.5185C62.6658 80 58.1436 80 52.5329 80H27.4672C21.8566 80 17.3342 80 13.7774 79.5185C10.0847 79.0183 6.97547 77.9482 4.50605 75.4604C2.03664 72.9721 0.974525 69.8399 0.478033 66.1194C-0.000162244 62.5358 -7.99017e-05 57.9797 2.14956e-06 52.3269C2.14956e-06 52.2513 2.14956e-06 52.1756 2.14956e-06 52.1C2.14956e-06 50.388 1.3776 49 3.07693 49Z" fill="#852E2C"/>
<path fill-rule="evenodd" clip-rule="evenodd" d="M40 0C40.8424 0 41.6456 0.360185 42.214 0.992502L58.214 18.7942C59.332 20.0381 59.2472 21.9684 58.0244 23.1057C56.8016 24.243 54.904 24.1566 53.786 22.9127L43 10.9122V55.9483C43 57.6336 41.6568 59 40 59C38.3432 59 37 57.6336 37 55.9483V10.9122L26.2141 22.9127C25.0961 24.1566 23.1985 24.243 21.9757 23.1057C20.7529 21.9684 20.6679 20.0381 21.7859 18.7942L37.786 0.992502C38.3544 0.360185 39.1576 0 40 0Z" fill="#852E2C"/>
</svg>
